<?xml version="1.0" encoding="utf-8"?>
<!-- Generator: Adobe Illustrator 17.0.0, SVG Export Plug-In . SVG Version: 6.00 Build 0)  -->
<!DOCTYPE svg PUBLIC "-//W3C//DTD SVG 1.1//EN" "http://www.w3.org/Graphics/SVG/1.1/DTD/svg11.dtd">
<svg version="1.1" id="圖層_1" xmlns="http://www.w3.org/2000/svg" xmlns:xlink="http://www.w3.org/1999/xlink" x="0px" y="0px"
	 width="500px" height="500px" viewBox="0 0 500 500" enable-background="new 0 0 500 500" xml:space="preserve">
<g>
	<path fill-rule="evenodd" clip-rule="evenodd" fill="#E95513" d="M326,309.4c-47.8,0-86.8-37.9-86.8-84.4
		c0-46.5,38.9-84.4,86.8-84.4c47.8,0,86.7,37.9,86.7,84.4C412.7,271.6,373.8,309.4,326,309.4z M326,149c-43.1,0-78.1,34.1-78.1,76
		s35,76,78.1,76c43.1,0,78.1-34.1,78.1-76S369.1,149,326,149z M315,247.1c-1.1,0-2-0.9-2-1.9v-40.2c0-1.1,0.9-1.9,2-1.9
		c0.5,0,0.9,0.2,1.1,0.3l32.8,20c0.8,0.4,1.1,1.1,1.1,1.8c0,0.7-0.4,1.3-1,1.7l-29.4,17.9l0,0l-3.7,2.2l-0.3,0.2
		C315.4,247,315.2,247.1,315,247.1L315,247.1z"/>
	<g>
		<path fill="#F4CDC1" d="M349.5,398.8c-27.8-26.7-23.6-37.8-24.4-52.2c-6.8-129.9-124.9-165.9-124.9-165.9h-81.6
			c-6.5,0-11.7,5.3-11.7,11.7c0,6.5,5.3,11.7,11.7,11.7h60.2l-10.7,11.7c-2.3-0.1-4.6,0.5-6.7,1.8l-68.8,43.9
			c-5.5,3.5-7.1,10.7-3.6,16.2c3.5,5.5,10.7,7.1,16.2,3.6l51.1-32.6l2.7,9l-66.4,42.4c-5.5,3.5-7.1,10.7-3.6,16.2
			c3.5,5.5,10.7,7.1,16.2,3.6l60.7-38.7l1.5,5.1c-0.1,0-0.1,0.1-0.2,0.1l-68.8,43.9c-5.5,3.5-7.1,10.7-3.6,16.2
			c3.5,5.5,10.7,7.1,16.2,3.6l63.3-40.4l10.9,36.9c-5.6,51.1,33.7,62.7,52.9,75.5c8.1,5.4,21.8,20.9,21.8,20.9
			S355.7,404.8,349.5,398.8z"/>
		<path fill="#F8E0D7" d="M87.3,272.7h0.1c6.4,0,11.5-5.2,11.5-11.5c0-1.1-0.2-2.2-0.5-3.2l-5.8,3.7
			C88.9,264.1,86.9,268.4,87.3,272.7z"/>
		<path fill="#F8E0D7" d="M87.3,311.2h0.1c6.4,0,11.5-5.2,11.5-11.5c0-1.1-0.2-2.2-0.5-3.2l-5.8,3.7C88.9,302.7,86.9,307,87.3,311.2
			z"/>
		<path fill="#F8E0D7" d="M93.2,341.3h0.1c6.4,0,11.5-5.2,11.5-11.5c0-1.1-0.2-2.2-0.5-3.2l-5.8,3.7
			C94.7,332.8,92.8,337.1,93.2,341.3z"/>
	</g>
	<g>
		<path fill-rule="evenodd" clip-rule="evenodd" fill="#F29600" d="M155.9,57h99.5c18.9,0,34.3,15.4,34.3,34.3l0,267.5
			c0,18.9-15.4,34.3-34.3,34.3h-99.5c-18.9,0-34.3-15.4-34.3-34.3l0-267.5C121.6,72.4,137,57,155.9,57z"/>
		<path fill-rule="evenodd" clip-rule="evenodd" fill="#F29600" d="M155.9,57h99.5c18.9,0,34.3,15.4,34.3,34.3l0,267.5
			c0,18.9-15.4,34.3-34.3,34.3h-99.5c-18.9,0-34.3-15.4-34.3-34.3l0-267.5C121.6,72.4,137,57,155.9,57z"/>
	</g>
	<rect x="133.9" y="92.1" fill-rule="evenodd" clip-rule="evenodd" fill="#FFFFFF" width="143.5" height="254.3"/>
	<path fill-rule="evenodd" clip-rule="evenodd" fill="#F4BC1B" d="M173.4,75.5H238c1.8,0,3.2-1.4,3.2-3.2v0c0-1.8-1.4-3.2-3.2-3.2
		h-64.6c-1.8,0-3.2,1.4-3.2,3.2v0C170.2,74.1,171.6,75.5,173.4,75.5z"/>
	<circle fill-rule="evenodd" clip-rule="evenodd" fill="#F4BC1B" cx="205.6" cy="370.1" r="15"/>
	<circle fill-rule="evenodd" clip-rule="evenodd" fill="#F29600" cx="205.6" cy="370.1" r="10.6"/>
	<rect x="133.9" y="333.1" fill-rule="evenodd" clip-rule="evenodd" fill="#F4BC1B" width="143.5" height="13.2"/>
	<g>
		<path fill="#F4CDC1" d="M321.8,356.2c6.9,8.5,5,21.5-4.2,28.9l0,0c-9.2,7.5-22.3,6.6-29.2-1.9l-78-97.5c-6.9-8.5-5-21.5,4.2-28.9
			l0,0c9.2-7.5,22.3-6.6,29.2,1.9L321.8,356.2z"/>
		<path fill="#F8E0D7" d="M239.5,262.1c4.8,6,3.2,15.3-3.6,20.8l0,0c-6.8,5.5-16.3,5.2-21.1-0.7l0,0c-4.8-6-3.2-15.3,3.6-20.8l0,0
			C225.2,255.8,234.7,256.1,239.5,262.1L239.5,262.1z"/>
	</g>
	<g>
		<path fill="#E95513" d="M169.5,185.8v5.3h10v5.1h-10v10h-6.1v-25.7h16.9v5.3H169.5z"/>
		<path fill="#E95513" d="M198.1,206.2l-5.6-10.2h-2.1v10.2h-6.1v-25.7h9.8c1.2,0,2.4,0.1,3.6,0.4c1.2,0.3,2.2,0.7,3.2,1.3
			c0.9,0.6,1.7,1.4,2.2,2.4c0.6,1,0.8,2.2,0.8,3.7c0,1.7-0.5,3.2-1.4,4.4c-0.9,1.2-2.3,2-3.9,2.5l6.7,11H198.1z M197.8,188.4
			c0-0.6-0.1-1.1-0.4-1.5c-0.3-0.4-0.6-0.7-1-0.9s-0.9-0.3-1.4-0.4c-0.5-0.1-1-0.1-1.4-0.1h-3.3v6h3c0.5,0,1,0,1.6-0.1
			c0.5-0.1,1-0.2,1.5-0.5c0.4-0.2,0.8-0.5,1.1-0.9C197.7,189.5,197.8,189,197.8,188.4z"/>
		<path fill="#E95513" d="M208.4,206.2v-25.7h17.3v5.2h-11.3v4.9h10.7v5h-10.7v5.3h12v5.3H208.4z"/>
		<path fill="#E95513" d="M230.4,206.2v-25.7h17.3v5.2h-11.3v4.9h10.7v5h-10.7v5.3h12v5.3H230.4z"/>
		<path fill="#E95513" d="M168.2,222.1v20.4H162v-20.4h-7.3v-5.3h20.7v5.3H168.2z"/>
		<path fill="#E95513" d="M192.1,242.5l-5.6-10.2h-2.1v10.2h-6.1v-25.7h9.8c1.2,0,2.4,0.1,3.6,0.4c1.2,0.3,2.2,0.7,3.2,1.3
			c0.9,0.6,1.7,1.4,2.2,2.4c0.6,1,0.8,2.2,0.8,3.7c0,1.7-0.5,3.2-1.4,4.4c-0.9,1.2-2.3,2-3.9,2.5l6.7,11H192.1z M191.8,224.7
			c0-0.6-0.1-1.1-0.4-1.5s-0.6-0.7-1-0.9s-0.9-0.3-1.4-0.4c-0.5-0.1-1-0.1-1.4-0.1h-3.3v6h3c0.5,0,1,0,1.6-0.1
			c0.5-0.1,1-0.2,1.5-0.5c0.4-0.2,0.8-0.5,1.1-0.9C191.7,225.9,191.8,225.4,191.8,224.7z"/>
		<path fill="#E95513" d="M202.4,242.5v-25.7h6.2v25.7H202.4z"/>
		<path fill="#E95513" d="M231.4,242.5l-2-5.1h-10l-1.9,5.1h-6.8l10.8-25.7h6l10.7,25.7H231.4z M224.5,223.7l-3.3,8.8h6.5
			L224.5,223.7z"/>
		<path fill="#E95513" d="M240.4,242.5v-25.7h6.2v20.3h10v5.4H240.4z"/>
	</g>
</g>
</svg>
