<?xml version="1.0" encoding="utf-8"?>
<!-- Generator: Adobe Illustrator 17.0.0, SVG Export Plug-In . SVG Version: 6.00 Build 0)  -->
<!DOCTYPE svg PUBLIC "-//W3C//DTD SVG 1.1//EN" "http://www.w3.org/Graphics/SVG/1.1/DTD/svg11.dtd">
<svg version="1.1" id="圖層_1" xmlns="http://www.w3.org/2000/svg" xmlns:xlink="http://www.w3.org/1999/xlink" x="0px" y="0px"
	 width="500px" height="500px" viewBox="0 0 500 500" enable-background="new 0 0 500 500" xml:space="preserve">
<g>
	<g>
		<g>
			<polygon fill="#DC5519" points="445.6,62.2 432.7,102.8 423.3,90.6 361.9,132.9 289.4,308.1 107.5,292.6 106.9,269.6 
				274.9,284.7 343.7,118.5 409.8,73 401.5,62.2 			"/>
		</g>
		<polygon fill="#E79012" points="424.3,437.8 397.9,437.8 397.9,132.8 424.3,114.5 		"/>
		<polygon fill="#DC5519" points="376.5,437.8 350.1,437.8 350.1,215.5 376.5,153 		"/>
		<polygon fill="#E79012" points="328.7,437.8 302.2,437.8 302.2,315.4 328.7,258.4 		"/>
		<polygon fill="#DC5519" points="280.9,437.8 254.4,437.8 254.4,319.7 280.9,322.6 		"/>
		<polygon fill="#E79012" points="233.1,437.8 206.6,437.8 206.6,315.4 233.1,319.7 		"/>
		<polygon fill="#DC5519" points="185.2,437.8 158.8,437.8 158.8,309.5 185.2,312 		"/>
		<polygon fill="#E79012" points="137.4,437.8 111,437.8 111,305 137.4,307.8 		"/>
	</g>
	<path fill="#FFFFFF" d="M107.7,302.5L107.7,302.5l-2.2-2.4l-2.2-2.4c0,0,0,0,0,0l-0.2-0.2l-0.9-1c0,0-25.6-5.5-32.9,19.5
		c0,0,2-1.5,5.6-1.4c0,0-6.5,8.8-4.8,17.6c8.6,2.5,18-3.1,18-3.1c-0.3,3.5-1.9,5.4-1.9,5.4c25.6-4.9,22.7-30.8,22.7-30.8
		L107.7,302.5z"/>
	<path fill="#004364" d="M272.8,136.3c0,0,34.5-26.1,35-24.2c0.5,2-27,33-27,33L272.8,136.3z"/>
	
		<rect x="72" y="287.5" transform="matrix(0.6811 0.7322 -0.7322 0.6811 249.9676 9.2471)" fill="#004364" width="84.7" height="8.1"/>
	
		<rect x="82.2" y="292.9" transform="matrix(0.6811 0.7322 -0.7322 0.6811 251.9876 15.3918)" fill="#004364" width="52.3" height="8.1"/>
	<path fill="#004364" d="M117,195.8c-17.7,17.5-31.6,36.4-41.1,54.6l-42,24.4L70,205.2c1.8-3.4,6.3-6.4,10.2-6.7L117,195.8z"/>
	<path fill="#004364" d="M210.8,296.9l-5.3,36.6c-0.6,3.8-3.9,8.1-7.4,9.7L126,374.1l27.4-40.2l0.2-0.1l0,0
		C172.3,325.7,192.1,313.2,210.8,296.9z"/>
	<path fill="#E8DCD8" d="M287.8,167.5c-1.9,34.7-30.2,86.2-70.5,123.7c-2.1,2-4.3,3.9-6.5,5.8c-18.7,16.3-38.5,28.8-57.3,36.9l0,0
		c-0.1,0-0.1,0.1-0.2,0.1l-39.1-42l-38.4-41.3c0-0.1,0.1-0.1,0.1-0.2c9.5-18.2,23.4-37.1,41.1-54.6c2-2,4-3.9,6.1-5.9
		c40.3-37.5,94.2-61.4,128.9-60.9c11.7,0.2,21.3,3.2,27.3,9.4c0.1,0.1,0.2,0.2,0.3,0.3C285.9,145.5,288.4,155.5,287.8,167.5z"/>
	<circle fill="#004364" cx="215.5" cy="197.8" r="35.7"/>
	<circle fill="#D7EEF9" cx="215.5" cy="197.8" r="30"/>
	<path fill="#004364" d="M287.8,167.5L252,129c12,0.2,21.6,3.3,27.6,9.7C285.9,145.5,288.4,155.5,287.8,167.5z"/>
	<g>
		<path fill="#DC5519" d="M108.7,303.7l-3.3-3.6l-2.3-2.6l-0.9-1c0,0-25.6-5.5-32.9,19.5c0,0,2-1.5,5.6-1.4c0,0-6.5,8.8-4.8,17.6
			c8.6,2.5,18-3.1,18-3.1c-0.3,3.5-1.9,5.4-1.9,5.4C111.6,329.7,108.7,303.7,108.7,303.7z"/>
		<path fill="#FCE5B9" d="M107.7,302.5l-2.2-2.4l-2.2-2.4c-15,2.9-22.3,24.6-22.3,24.6S103.3,317.2,107.7,302.5z"/>
	</g>
	<path opacity="0.4" fill="#FFFFFF" d="M279.3,138.4L114.2,291.9l-38.4-41.3c10.6-20.3,26.7-41.5,47.3-60.7
		c40.3-37.4,94.2-61.4,128.9-60.9C263.8,129.2,273.3,132.2,279.3,138.4z"/>
</g>
</svg>
