<?xml version="1.0" encoding="utf-8"?>
<!-- Generator: Adobe Illustrator 17.0.0, SVG Export Plug-In . SVG Version: 6.00 Build 0)  -->
<!DOCTYPE svg PUBLIC "-//W3C//DTD SVG 1.1//EN" "http://www.w3.org/Graphics/SVG/1.1/DTD/svg11.dtd">
<svg version="1.1" id="圖層_1" xmlns="http://www.w3.org/2000/svg" xmlns:xlink="http://www.w3.org/1999/xlink" x="0px" y="0px"
	 width="500px" height="500px" viewBox="0 0 500 500" enable-background="new 0 0 500 500" xml:space="preserve">
<g>
	<g>
		<path fill-rule="evenodd" clip-rule="evenodd" fill="#F29600" d="M94.3,131h287.4c5.9,0,10.7,4.8,10.7,10.7v181.5
			c0,5.9-4.8,10.7-10.7,10.7H94.3c-5.9,0-10.7-4.8-10.7-10.7V141.7C83.6,135.8,88.4,131,94.3,131z"/>
		<rect x="99.6" y="152.2" fill-rule="evenodd" clip-rule="evenodd" fill="#FFFFFF" width="276.7" height="148.5"/>
		<circle fill-rule="evenodd" clip-rule="evenodd" fill="#E95513" cx="238" cy="142" r="3.9"/>
		<rect x="231.4" y="309.9" fill-rule="evenodd" clip-rule="evenodd" fill="#E95513" width="13.1" height="13.1"/>
		<polygon fill-rule="evenodd" clip-rule="evenodd" fill="#F7B52C" points="83.6,333.9 392.3,333.9 446,369 30,369 		"/>
		<path fill-rule="evenodd" clip-rule="evenodd" fill="#F29600" d="M30,369h416v5c0,4.2-3.5,7.7-7.7,7.7H37.7
			c-4.2,0-7.7-3.5-7.7-7.7V369z"/>
		<rect x="30" y="369" fill-rule="evenodd" clip-rule="evenodd" fill="#F29600" width="416" height="6"/>
		<path fill-rule="evenodd" clip-rule="evenodd" fill="#E95513" d="M375.9,354v-0.3l0.3,0.3L375.9,354L375.9,354z M375.9,347
			c1.5,1.1,3,2.2,4.6,3.4c1.7,1.2,3.3,2.4,5,3.6c8.9,0,17.9,0,26.8,0c-2-1.2-3.9-2.4-5.9-3.6c-2-1.2-3.9-2.4-5.8-3.6
			c-8.3,0-16.5,0-24.7,0V347L375.9,347z M375.9,344v-7.2l8.4,0c2,1.2,3.9,2.4,5.9,3.6c2,1.2,3.9,2.4,5.9,3.6
			C389.4,344,382.6,344,375.9,344z M375.9,336.8v7.2l-4.2,0c-1.7-1.2-3.3-2.4-5-3.6c-1.4-1-2.8-2-4.2-3v-0.6L375.9,336.8
			L375.9,336.8z M375.9,346.8v0.2l-0.3-0.2H375.9L375.9,346.8z M375.9,353.7c-1.4-1.1-2.9-2.2-4.4-3.4c-1.5-1.2-3.1-2.4-4.6-3.6
			l-4.4,0v7.2l13.4,0V353.7L375.9,353.7z M362.6,344l0.8,0l-0.8-0.6V344z M130.7,357.2h212.5l7.5,7.8H123.6L130.7,357.2L130.7,357.2
			z M362.6,336.8v0.6c-0.3-0.2-0.5-0.4-0.8-0.6L362.6,336.8L362.6,336.8z M362.6,343.4c-1.3-1-2.6-2-3.9-3c-1.6-1.2-3.1-2.4-4.7-3.6
			c-7.5,0-15,0-22.5,0c1.3,1.2,2.5,2.4,3.8,3.6c1.3,1.2,2.5,2.4,3.8,3.6l23.5,0V343.4L362.6,343.4z M362.6,346.8v7.2l-13.1,0
			c-1.3-1.2-2.5-2.4-3.8-3.6c-1.3-1.2-2.5-2.4-3.7-3.6C348.8,346.8,355.7,346.8,362.6,346.8L362.6,346.8z M111,354.3v-7.5
			c6.9,0,13.7,0,20.7,0c-1.2,1.3-2.5,2.5-3.7,3.8c-1.3,1.3-2.5,2.5-3.8,3.7L111,354.3L111,354.3z M111,343.8v-0.6
			c1.3-1,2.6-2.1,3.9-3.1c1.5-1.3,3.1-2.5,4.6-3.8c7.5,0,15,0,22.5,0c-1.2,1.3-2.5,2.5-3.7,3.8c-1.3,1.3-2.5,2.5-3.8,3.7
			C126.7,343.9,118.9,343.8,111,343.8L111,343.8z M111,336.9l0.8-0.6l-0.8,0V336.9L111,336.9z M140.3,346.8c8.3,0,16.7,0,25,0
			c-0.8,1.2-1.7,2.5-2.5,3.7c-0.8,1.2-1.7,2.5-2.5,3.7c-8.9,0-17.9,0-26.8,0c1.2-1.2,2.3-2.5,3.4-3.7
			C138,349.3,139.2,348,140.3,346.8L140.3,346.8z M173.9,346.8c8.3,0,16.7,0,25,0c-0.4,1.2-0.9,2.5-1.3,3.7
			c-0.4,1.2-0.9,2.5-1.3,3.7c-8.9,0-17.9,0-26.8,0c0.8-1.2,1.5-2.5,2.2-3.7C172.4,349.3,173.1,348,173.9,346.8L173.9,346.8z
			 M207.5,346.8c8.3,0,16.7,0,25,0c0,1.2-0.1,2.5-0.2,3.7c0,1.2-0.1,2.5-0.1,3.7c-8.9,0-17.9,0-26.8,0c0.3-1.2,0.7-2.5,1-3.7
			C206.8,349.2,207.2,348,207.5,346.8L207.5,346.8z M241.1,346.8c8.3,0,16.6,0,25,0c0.3,1.2,0.7,2.4,1,3.7c0.4,1.2,0.7,2.4,1,3.7
			c-8.9,0-17.9,0-26.8,0c0-1.2-0.1-2.5-0.2-3.7C241.2,349.2,241.2,348,241.1,346.8L241.1,346.8z M274.7,346.8c8.3,0,16.7,0,25,0
			c0.7,1.2,1.5,2.4,2.2,3.7c0.7,1.2,1.5,2.4,2.3,3.6c-8.9,0-17.9,0-26.8,0c-0.5-1.2-0.9-2.4-1.4-3.7
			C275.6,349.2,275.2,348,274.7,346.8L274.7,346.8z M308.3,346.8c8.3,0,16.7,0,25,0c1.2,1.2,2.3,2.4,3.4,3.6
			c1.2,1.2,2.3,2.4,3.5,3.6c-8.9,0-17.9,0-26.8,0c-0.8-1.2-1.7-2.4-2.6-3.6C310,349.2,309.2,348,308.3,346.8L308.3,346.8z
			 M149.8,336.4c7.5,0,15,0,22.5,0c-0.8,1.2-1.7,2.5-2.5,3.7c-0.8,1.2-1.7,2.5-2.5,3.7c-8.1,0-16.2,0-24.3,0
			c1.2-1.2,2.3-2.5,3.5-3.7C147.5,338.9,148.6,337.6,149.8,336.4L149.8,336.4z M180.1,336.4c7.5,0,15,0,22.5,0
			c-0.5,1.2-0.9,2.5-1.3,3.7c-0.4,1.2-0.9,2.5-1.3,3.7c-8.1,0-16.2,0-24.3,0c0.7-1.2,1.5-2.5,2.3-3.7
			C178.6,338.9,179.3,337.7,180.1,336.4L180.1,336.4z M210.4,336.5c7.5,0,15,0,22.5,0c0,1.2-0.1,2.5-0.1,3.7c0,1.2-0.1,2.5-0.2,3.7
			c-8.1,0-16.2,0-24.3,0c0.3-1.2,0.7-2.5,1-3.7C209.7,339,210,337.7,210.4,336.5L210.4,336.5z M240.6,336.5c7.5,0,15,0,22.5,0
			c0.4,1.2,0.7,2.5,1.1,3.7c0.3,1.2,0.7,2.4,1.1,3.7c-8.1,0-16.2,0-24.3,0c-0.1-1.2-0.1-2.5-0.2-3.7
			C240.8,339,240.7,337.8,240.6,336.5L240.6,336.5z M270.9,336.6c7.5,0,15,0,22.5,0c0.8,1.2,1.5,2.4,2.3,3.7
			c0.7,1.2,1.5,2.4,2.3,3.6c-8.1,0-16.2,0-24.3,0c-0.5-1.2-0.9-2.4-1.4-3.7C271.8,339.1,271.4,337.8,270.9,336.6L270.9,336.6z
			 M301.2,336.7c7.5,0,15,0,22.5,0c1.2,1.2,2.3,2.4,3.5,3.6c1.2,1.2,2.3,2.4,3.5,3.6c-8.1,0-16.2,0-24.3,0c-0.8-1.2-1.7-2.4-2.6-3.6
			C302.9,339.1,302.1,337.9,301.2,336.7z M111,336.3v0.6c-1.4,1.1-2.8,2.1-4.2,3.2c-1.6,1.3-3.3,2.5-5,3.8l-4.1,0v-7.6L111,336.3
			L111,336.3z M111,343.2c-0.3,0.2-0.5,0.4-0.8,0.6h0.8V343.2L111,343.2z M111,346.8v7.5l-13.3,0V354c1.5-1.2,2.9-2.3,4.3-3.5
			c1.5-1.2,3.1-2.5,4.6-3.8H111L111,346.8z M97.7,347l0.3-0.2h-0.3V347z M97.7,336.3v7.6c-6.7,0-13.4,0-20.1,0
			c1.9-1.3,3.9-2.5,5.8-3.8c1.9-1.3,3.9-2.5,5.8-3.8L97.7,336.3L97.7,336.3z M97.7,346.8v0.2c-1.5,1.2-3.1,2.4-4.6,3.5
			c-1.7,1.3-3.3,2.5-4.9,3.8c-8.9,0-17.9,0-26.8,0c2-1.3,3.9-2.5,5.8-3.8c1.9-1.3,3.9-2.5,5.8-3.8C81.3,346.8,89.5,346.8,97.7,346.8
			L97.7,346.8z M97.7,354l-0.3,0.2h0.3V354z"/>
		<rect x="196" y="373.1" fill-rule="evenodd" clip-rule="evenodd" fill="#E95513" width="84" height="3.9"/>
		<g>
			<polygon fill="#EEEEEF" points="376.3,152.2 100.7,300.7 376.3,300.7 			"/>
		</g>
	</g>
	<g>
		<g>
			<g>
				<g>
					<g>
						<path fill="#E9B526" d="M422.9,417.1h-87.6c-20.5,0-37.1-16.6-37.1-36.9V229.8c0-20.4,16.6-36.9,37.1-36.9h87.6
							c20.5,0,37.1,16.6,37.1,36.9v150.3C460,400.5,443.4,417.1,422.9,417.1z M335.3,205.4c-13.5,0-24.6,11-24.6,24.4v150.3
							c0,13.5,11,24.4,24.6,24.4h87.6c13.5,0,24.6-11,24.6-24.4V229.8c0-13.5-11-24.4-24.6-24.4H335.3z"/>
					</g>
					<g>
						<path fill-rule="evenodd" clip-rule="evenodd" fill="#F29600" d="M422.9,199.2h-87.6c-17,0-30.8,13.8-30.8,30.7v150.3
							c0,16.9,13.9,30.7,30.8,30.7h87.6c17,0,30.8-13.8,30.8-30.7V229.8C453.7,213,439.8,199.2,422.9,199.2z"/>
					</g>
				</g>
				<g>
					<path fill-rule="evenodd" clip-rule="evenodd" fill="#FAED00" d="M442.7,216.9H315.5c-0.2,0-0.4,0.2-0.4,0.4v173.5
						c0,0.2,0.2,0.4,0.4,0.4h127.2c0.2,0,0.4-0.2,0.4-0.4V217.4C443.1,217.1,442.9,216.9,442.7,216.9z"/>
				</g>
				<g>
					<path fill-rule="evenodd" clip-rule="evenodd" fill="#E9B526" d="M395.5,204.4h-32.7c-0.9,0-1.6,0.7-1.6,1.6v0
						c0,0.9,0.7,1.6,1.6,1.6h32.7c0.9,0,1.6-0.7,1.6-1.6v0C397.1,205.1,396.4,204.4,395.5,204.4z"/>
				</g>
			</g>
			<g>
				<rect x="315.1" y="216.9" fill-rule="evenodd" clip-rule="evenodd" fill="#FFFFFF" width="128.1" height="174.4"/>
			</g>
			<g>
				<polygon fill="#EEEEEF" points="315.1,345 315.1,391.3 443.1,391.3 443.1,216.9 				"/>
			</g>
		</g>
	</g>
	<g>
		<g>
			<g>
				<g>
					<g>
						<path fill="#E9B526" d="M326.3,430h-44.1c-10.7,0-19.3-8.7-19.3-19.3V292.2c0-10.6,8.7-19.3,19.3-19.3h44.1
							c10.7,0,19.3,8.7,19.3,19.3v118.5C345.6,421.4,336.9,430,326.3,430z M282.2,281.1c-6.1,0-11.1,5-11.1,11.1v118.5
							c0,6.1,5,11.1,11.1,11.1h44.1c6.1,0,11.1-5,11.1-11.1V292.2c0-6.1-5-11.1-11.1-11.1H282.2z"/>
					</g>
					<g>
						<path fill-rule="evenodd" clip-rule="evenodd" fill="#F29600" d="M282.2,277h44.1c8.4,0,15.2,6.8,15.2,15.2l0,118.5
							c0,8.4-6.8,15.2-15.2,15.2h-44.1c-8.4,0-15.2-6.8-15.2-15.2l0-118.5C267,283.8,273.8,277,282.2,277z"/>
					</g>
				</g>
				<g>
					<rect x="272.5" y="292.5" fill-rule="evenodd" clip-rule="evenodd" fill="#FFFFFF" width="63.6" height="112.7"/>
				</g>
				<g>
					<path fill-rule="evenodd" clip-rule="evenodd" fill="#E9B526" d="M290,285.2h28.6c0.8,0,1.4-0.6,1.4-1.4v0
						c0-0.8-0.6-1.4-1.4-1.4H290c-0.8,0-1.4,0.6-1.4,1.4v0C288.6,284.6,289.2,285.2,290,285.2z"/>
				</g>
				<g>
					<path fill-rule="evenodd" clip-rule="evenodd" fill="#E9B526" d="M280.2,417.9h48.2c1.2,0,2.2-1,2.2-2.2v0c0-1.2-1-2.2-2.2-2.2
						l-48.2,0c-1.2,0-2.2,1-2.2,2.2l0,0C278,416.9,279,417.9,280.2,417.9z"/>
				</g>
				<g>
					<circle fill-rule="evenodd" clip-rule="evenodd" fill="#E95513" cx="304.2" cy="415.7" r="8.6"/>
				</g>
				<g>
					<circle fill-rule="evenodd" clip-rule="evenodd" fill="#F29600" cx="304.2" cy="415.7" r="6"/>
				</g>
				<g>
					<polygon fill="#EEEEEF" points="272.5,356.2 272.5,405.2 336.1,405.2 336.1,292.5 					"/>
				</g>
			</g>
		</g>
	</g>
	<g>
		<g>
			<g id="comment_x5F_alt2_x5F_fill_1_">
				<g>
					<path fill="#003A59" d="M47.3,184.1c18.6,40.4,66.4,58,106.8,39.4c6-2.7,11.2-6.3,16.2-10.2l45.7,7L196,177.8
						c6.9-19.2,6.7-41-2.5-61c-18.6-40.4-66.4-58-106.8-39.4S28.7,143.8,47.3,184.1z"/>
				</g>
			</g>
		</g>
		<path id="android_2_" fill-rule="evenodd" clip-rule="evenodd" fill="#FFFFFF" d="M114.5,132.5c-1.7,0-3.1-1.4-3.1-3.2v-13.6
			c0-1.8,1.4-3.2,3.1-3.2c1.7,0,3.1,1.4,3.1,3.2v13.6C117.6,131.1,116.2,132.5,114.5,132.5z M106.1,139.2h-2.4
			c0.1,0.3,0.1,0.6,0.1,0.9v0.2v1.1v5.5c0,1.8-1.4,3.2-3.1,3.2c-1.7,0-3.1-1.4-3.1-3.2v-5.5v-1.1v-0.2c0-0.3,0-0.6,0.1-0.9h-5.7
			c0.1,0.3,0.1,0.6,0.1,0.9v0.2v1.1v5.5c0,1.8-1.4,3.2-3.1,3.2c-1.7,0-3.1-1.4-3.1-3.2v-5.5v-1.1v-0.2c0-0.3,0-0.6,0.1-0.9h-2.4
			c-1.8,0-3.3-1.5-3.3-3.4v-18.5v-2.2v-2.6h0.2h28.4h0.2v2.6v2.2v18.5C109.4,137.7,107.9,139.2,106.1,139.2z M87.9,99.8l-0.6-0.9
			L86.7,98l-1.3-2c-0.2-0.2-0.1-0.6,0.1-0.7c0.2-0.2,0.6-0.1,0.7,0.1l1.4,2.1l0.6,0.9l0.6,0.9c1.9-0.7,3.9-1.2,6.1-1.2
			c2.2,0,4.3,0.4,6.1,1.2l0.6-0.9l0.6-0.9l1.4-2.1c0.2-0.2,0.5-0.3,0.7-0.1c0.2,0.2,0.3,0.5,0.1,0.7l-1.3,2l-0.6,0.9l-0.6,0.9
			c4.4,2.1,7.3,6.1,7.3,10.6H80.5C80.5,105.9,83.5,101.9,87.9,99.8z M101.1,106.2c0.9,0,1.5-0.7,1.5-1.6c0-0.9-0.7-1.6-1.5-1.6
			c-0.9,0-1.5,0.7-1.5,1.6C99.6,105.5,100.3,106.2,101.1,106.2z M88.8,106.2c0.9,0,1.5-0.7,1.5-1.6c0-0.9-0.7-1.6-1.5-1.6
			c-0.9,0-1.5,0.7-1.5,1.6C87.2,105.5,87.9,106.2,88.8,106.2z M75.4,132.5c-1.7,0-3.1-1.4-3.1-3.2v-13.6c0-1.8,1.4-3.2,3.1-3.2
			c1.7,0,3.1,1.4,3.1,3.2v13.6C78.5,131.1,77.1,132.5,75.4,132.5z"/>
		<g>
			<path fill="#568CBE" d="M196,177.8c6.9-19.2,6.7-41-2.5-61c-4.3-9.4-10.3-17.6-17.4-24.4L62.3,206.2c23.1,24,59.7,32.1,91.7,17.4
				c6-2.7,11.2-6.3,16.2-10.2l45.7,7L196,177.8z"/>
		</g>
		<path id="apple_2_" fill-rule="evenodd" clip-rule="evenodd" fill="#FFFFFF" d="M163.4,166.5c0.1,8.2,7.7,10.9,7.8,11
			c-0.1,0.2-1.2,3.9-4,7.7c-2.4,3.3-4.9,6.6-8.9,6.6c-3.9,0.1-5.1-2.1-9.6-2.1c-4.5,0-5.8,2.1-9.5,2.2c-3.8,0.1-6.7-3.6-9.2-6.8
			c-5-6.7-8.8-19-3.7-27.3c2.5-4.1,7.1-6.7,12-6.8c3.8-0.1,7.3,2.4,9.6,2.4c2.3,0,6.6-2.9,11.1-2.5c1.9,0.1,7.2,0.7,10.6,5.4
			C169.5,156.3,163.4,159.6,163.4,166.5z M147.5,150.2c-0.4-3.1,1.2-6.3,3.1-8.4c2.1-2.3,5.6-4,8.6-4.1c0.4,3.2-1,6.4-3,8.6
			C154.1,148.6,150.8,150.4,147.5,150.2z"/>
	</g>
</g>
</svg>
