<?xml version="1.0" encoding="utf-8"?>
<!-- Generator: Adobe Illustrator 17.0.0, SVG Export Plug-In . SVG Version: 6.00 Build 0)  -->
<!DOCTYPE svg PUBLIC "-//W3C//DTD SVG 1.1//EN" "http://www.w3.org/Graphics/SVG/1.1/DTD/svg11.dtd">
<svg version="1.1" id="圖層_1" xmlns="http://www.w3.org/2000/svg" xmlns:xlink="http://www.w3.org/1999/xlink" x="0px" y="0px"
	 width="500px" height="500px" viewBox="0 0 500 500" enable-background="new 0 0 500 500" xml:space="preserve">
<g>
	<g>
		<g>
			<g>
				<circle fill="#EB6627" cx="310.9" cy="239.2" r="122.9"/>
			</g>
			<g>
				<path fill="#DC4319" d="M224,152.3l173.8,173.8c48-48,48-125.8,0-173.8S272,104.3,224,152.3z"/>
			</g>
		</g>
		<g>
			<path fill="#FFFFFF" d="M383.6,311.9c-40.1,40.1-105.4,40.1-145.5,0c-40.1-40.1-40.1-105.4,0-145.5c40.1-40.1,105.4-40.1,145.5,0
				C423.7,206.6,423.7,271.8,383.6,311.9z M254.9,183.2c-30.9,30.9-30.9,81.1,0,112c30.9,30.9,81.1,30.9,112,0
				c30.9-30.9,30.9-81.1,0-112C336,152.3,285.8,152.3,254.9,183.2z"/>
		</g>
		<g>
			<path fill="#FFFFFF" d="M355.3,283.6c-24.5,24.5-64.3,24.5-88.8,0s-24.5-64.3,0-88.8c24.5-24.5,64.3-24.5,88.8,0
				S379.8,259.1,355.3,283.6z M283.2,211.5c-15.3,15.3-15.3,40.1,0,55.4c15.3,15.3,40.1,15.3,55.4,0c15.3-15.3,15.3-40.1,0-55.4
				C323.3,196.2,298.5,196.2,283.2,211.5z"/>
		</g>
		<g>
			<circle fill="#FFFFFF" cx="310.9" cy="239.2" r="20.6"/>
		</g>
		<g>
			<path fill="#003351" d="M439.6,118.2L314.8,243c-2.1,2.1-5.6,2.1-7.7,0c-2.1-2.1-2.1-5.6,0-7.7l124.9-124.9
				c2.1-2.1,5.6-2.1,7.7,0C441.8,112.6,441.8,116,439.6,118.2z"/>
		</g>
		<g>
			<polygon fill="#DC4319" points="425.4,88.5 416.8,97.1 409.7,117.9 407.6,106.3 393.2,120.7 397.7,144.5 429.9,112.3 			"/>
		</g>
		<g>
			<polygon fill="#DC4319" points="461.6,124.7 429.4,156.9 405.6,152.4 437.8,120.2 			"/>
		</g>
	</g>
	<g>
		<g>
			<path fill-rule="evenodd" clip-rule="evenodd" fill="#E79012" d="M108.5,53.2H225c22.1,0,40.2,18.1,40.2,40.2l0,313.3
				c0,22.1-18.1,40.2-40.2,40.2H108.5c-22.1,0-40.2-18.1-40.2-40.2l0-313.3C68.4,71.2,86.5,53.2,108.5,53.2z"/>
			<path fill-rule="evenodd" clip-rule="evenodd" fill="#E79012" d="M108.5,53.2H225c22.1,0,40.2,18.1,40.2,40.2l0,313.3
				c0,22.1-18.1,40.2-40.2,40.2H108.5c-22.1,0-40.2-18.1-40.2-40.2l0-313.3C68.4,71.2,86.5,53.2,108.5,53.2z"/>
		</g>
		<rect x="82.8" y="94.3" fill-rule="evenodd" clip-rule="evenodd" fill="#FFFFFF" width="168.1" height="297.9"/>
		<path fill-rule="evenodd" clip-rule="evenodd" fill="#E9B526" d="M129.1,74.9h75.6c2.1,0,3.7-1.7,3.7-3.7v0c0-2.1-1.7-3.7-3.7-3.7
			h-75.6c-2.1,0-3.7,1.7-3.7,3.7v0C125.3,73.2,127,74.9,129.1,74.9z"/>
		<circle fill-rule="evenodd" clip-rule="evenodd" fill="#E9B526" cx="166.8" cy="420" r="17.6"/>
		<circle fill-rule="evenodd" clip-rule="evenodd" fill="#E79012" cx="166.8" cy="420" r="12.4"/>
		<rect x="82.8" y="376.6" fill-rule="evenodd" clip-rule="evenodd" fill="#E9B526" width="168.1" height="15.5"/>
	</g>
	<g>
		<g>
			<g>
				<circle fill="#F4A617" cx="166.9" cy="239.2" r="55.4"/>
			</g>
			<g>
				<path fill="#ED9314" d="M166.9,183.8v110.9c30.6,0,55.4-24.8,55.4-55.4S197.5,183.8,166.9,183.8z"/>
			</g>
		</g>
		<g>
			<path fill="#FFFFFF" d="M188,248.9c0-4-1.2-7.3-3.7-9.8c-2.4-2.5-6.5-4.8-12.1-6.8c-2.8-0.9-4.9-1.8-6.5-2.5
				c-1.6-0.7-2.7-1.4-3.3-1.9c-0.6-0.6-0.9-1.3-0.9-2.2c0-1,0.4-1.8,1.3-2.3c0.9-0.5,2.4-0.8,4.5-0.8c4.3,0,9.2,1.2,14.5,3.5
				c0.2,0.1,0.5,0.2,0.7,0.3l4.8-11.5c-1.8-0.8-3.7-1.5-5.5-2c-3.2-1-6.5-1.6-9.7-1.9v-5.5h-1h-8.3h-1.2v5.7
				c-5.1,0.7-8.9,2.2-11.6,4.5c-2.8,2.5-4.3,6-4.3,10.4c0,2.9,0.5,5.3,1.4,7.3c1,1.9,2.5,3.7,4.6,5.3c2.1,1.6,4.9,3,8.3,4.3
				c3,1.1,5.4,2,7.2,2.8c1.8,0.8,3.1,1.5,3.8,2.1c0.8,0.6,1.1,1.4,1.1,2.3c0,1.3-0.5,2.2-1.6,2.8c-1.1,0.6-2.7,0.8-5,0.8
				c-2.8,0-6-0.5-9.6-1.6c-3.7-1.1-7-2.4-10.2-4v13.4c5.1,2.2,10.3,3.5,15.8,3.9v7.6h1.2h8.3h1V265c5-0.8,8.9-2.4,11.6-5.1
				C186.6,257.1,188,253.4,188,248.9z"/>
		</g>
	</g>
</g>
</svg>
